<svg width="24" height="24" viewBox="0 0 24 24" fill="none" xmlns="http://www.w3.org/2000/svg">
<g opacity="0.5">
<path d="M11 2C10.4477 2 10 2.44772 10 3C10 3.55228 10.4477 4 11 4V3V2ZM13.3438 4C13.896 4 14.3438 3.55228 14.3438 3C14.3438 2.44772 13.896 2 13.3438 2V3V4ZM13 18.8594C13 18.3071 12.5523 17.8594 12 17.8594C11.4477 17.8594 11 18.3071 11 18.8594H12H13ZM11 18.8702C11 19.4225 11.4477 19.8702 12 19.8702C12.5523 19.8702 13 19.4225 13 18.8702H12H11ZM7.3125 2.625V3.625H16.6875V2.625V1.625H7.3125V2.625ZM16.6875 2.625V3.625C16.7824 3.625 16.8594 3.70195 16.8594 3.79688H17.8594H18.8594C18.8594 2.59738 17.887 1.625 16.6875 1.625V2.625ZM17.8594 3.79688H16.8594V20.2031H17.8594H18.8594V3.79688H17.8594ZM17.8594 20.2031H16.8594C16.8594 20.298 16.7824 20.375 16.6875 20.375V21.375V22.375C17.887 22.375 18.8594 21.4026 18.8594 20.2031H17.8594ZM16.6875 21.375V20.375H7.3125V21.375V22.375H16.6875V21.375ZM7.3125 21.375V20.375C7.21758 20.375 7.14062 20.298 7.14062 20.2031H6.14062H5.14062C5.14062 21.4026 6.11301 22.375 7.3125 22.375V21.375ZM6.14062 20.2031H7.14062V3.79688H6.14062H5.14062V20.2031H6.14062ZM6.14062 3.79688H7.14062C7.14062 3.70195 7.21758 3.625 7.3125 3.625V2.625V1.625C6.11301 1.625 5.14062 2.59738 5.14062 3.79688H6.14062ZM11 3V4H13.3438V3V2H11V3ZM12 18.8594H11V18.8702H12H13V18.8594H12ZM6.5 16.5V17.5H17.5V16.5V15.5H6.5V16.5Z" fill="white"/>
</g>
</svg>
